# xmcd
#
# Track frame offsets:
#	150
#	26388
#	78533
#	109360
#	126077
#	147532
#	170677
#	197699
#	216552
#
# Disc length: 3229 seconds
#
# Revision: 1
# Processed by: cddbd v1.4PL0 Copyright (c) Steve Scherf et al.
# Submitted via: audiograbber 1.81.03
#
DISCID=890c9b09
DTITLE=Tim Williams - The Electro Fires
DYEAR=2002
DGENRE=Blues
TTITLE0=Drivin' Wheel
TTITLE1=Sk Blues
TTITLE2=I'll Play The Blues For You
TTITLE3=Can I Bring My Clothes Back Home
TTITLE4=Street Walkin' Woman
TTITLE5=Smack Dab In The Middle
TTITLE6=Hey, Little Girl
TTITLE7=Statesboro Blues
TTITLE8=New 61 Highway Blues
EXTD=
EXTT0=
EXTT1=
EXTT2=
EXTT3=
EXTT4=
EXTT5=
EXTT6=
EXTT7=
EXTT8=
PLAYORDER=
